<svg width="271" height="155" viewBox="0 0 271 155" fill="none" xmlns="http://www.w3.org/2000/svg">
<g filter="url(#filter0_d_2338_8576)">
<path d="M125.456 47.4106C119.787 66.5759 151.315 72.3654 167.787 72.8645C164.953 72.8645 158.277 73.6132 155.293 73.9875C143.98 76.2958 122.92 84.1691 129.186 97.1954C135.451 110.222 144.477 110.359 148.207 108.799C146.839 112.667 146.491 121.863 156.039 127.703C165.587 133.542 173.817 128.514 176.738 125.27C179.722 132.382 185.876 139.494 192.962 140.43C198.631 141.178 203.032 133.879 204.524 130.136C209.248 130.697 220.076 131.296 225.596 129.2C231.116 127.104 231.874 120.341 231.563 117.222C233.95 117.821 236.66 116.348 237.717 115.537C240.85 111.495 239.022 103.247 237.717 99.6285C248.16 96.2596 250.211 92.7036 251.889 88.586C253.232 85.292 251.33 80.7253 250.211 78.8537C256.179 75.672 258.603 73.8004 259.722 66.3139C260.617 60.3248 253.754 55.2091 250.211 53.3998C247.377 50.1058 243.311 47.0364 241.633 45.9134C232.98 41.721 220.126 47.6603 214.78 51.1539C223.917 41.6087 230.258 22.1437 221.12 16.7164C213.81 12.3745 205.394 16.6541 202.099 19.3366C199.862 10.9518 193.21 9.10475 190.165 9.22931C176.141 8.48067 174.625 25.2629 175.619 33.7477C171.89 26.6356 158.09 17.0904 148.58 22.1437C140.971 26.1864 142.426 35.3075 144.104 39.3627C132.915 36.9671 127.01 43.7298 125.456 47.4106Z" fill="#EBC8E5"/>
</g>
<g filter="url(#filter1_d_2338_8576)">
<path d="M36.3421 88.4755C62.9871 95.0751 66.3746 109.283 62.5533 143.564C68.9123 145.81 69.1555 131.504 69.163 103.984C81.4023 93.9176 87.9025 94.0115 99.4767 94.4936C116.052 83.1044 117.704 74.7513 115.887 58.6166C105.72 67.1189 101.333 75.8211 93.3228 90.7902C82.2281 91.2071 76.9026 93.0059 69.163 99.8173L72.3539 84.7721C107.235 70.7734 104.894 53.208 79.1916 12.3237C69.9029 11.0938 66.202 11.6105 64.3766 16.2586C59.0373 14.5698 57.4812 12.2746 55.9435 7C48.5815 7.95318 45.7706 10.752 42.724 19.0362C22.0332 60.3442 33.7882 70.0675 62.5533 82.9204V97.0397L36.3421 82.9204C21.6947 71.2122 14.3983 64.5598 11.9544 51.6727C11.0751 58.2312 10.166 60.6921 6.94012 60.2369C12.555 83.7392 21.6823 84.2039 36.3421 88.4755Z" fill="#868C4A"/>
</g>
<defs>
<filter id="filter0_d_2338_8576" x="118.565" y="2.98718" width="151.6" height="147.858" filterUnits="userSpaceOnUse" color-interpolation-filters="sRGB">
<feFlood flood-opacity="0" result="BackgroundImageFix"/>
<feColorMatrix in="SourceAlpha" type="matrix" values="0 0 0 0 0 0 0 0 0 0 0 0 0 0 0 0 0 0 127 0" result="hardAlpha"/>
<feOffset dx="2.07263" dy="2.07263"/>
<feGaussianBlur stdDeviation="4.14527"/>
<feComposite in2="hardAlpha" operator="out"/>
<feColorMatrix type="matrix" values="0 0 0 0 0.649805 0 0 0 0 0.571842 0 0 0 0 0.428909 0 0 0 1 0"/>
<feBlend mode="normal" in2="BackgroundImageFix" result="effect1_dropShadow_2338_8576"/>
<feBlend mode="normal" in="SourceGraphic" in2="effect1_dropShadow_2338_8576" result="shape"/>
</filter>
<filter id="filter1_d_2338_8576" x="0.722224" y="0.782099" width="126.11" height="153.374" filterUnits="userSpaceOnUse" color-interpolation-filters="sRGB">
<feFlood flood-opacity="0" result="BackgroundImageFix"/>
<feColorMatrix in="SourceAlpha" type="matrix" values="0 0 0 0 0 0 0 0 0 0 0 0 0 0 0 0 0 0 127 0" result="hardAlpha"/>
<feOffset dx="2.07263" dy="2.07263"/>
<feGaussianBlur stdDeviation="4.14527"/>
<feComposite in2="hardAlpha" operator="out"/>
<feColorMatrix type="matrix" values="0 0 0 0 0.649805 0 0 0 0 0.571842 0 0 0 0 0.428909 0 0 0 1 0"/>
<feBlend mode="normal" in2="BackgroundImageFix" result="effect1_dropShadow_2338_8576"/>
<feBlend mode="normal" in="SourceGraphic" in2="effect1_dropShadow_2338_8576" result="shape"/>
</filter>
</defs>
</svg>
