<svg width="407" height="105" viewBox="0 0 407 105" fill="none" xmlns="http://www.w3.org/2000/svg">
<path d="M103.711 82.5115H95.3528L95.3528 0.0482178L103.711 0.0482192L103.711 82.5115Z" fill="#3A3A3A"/>
<path d="M140.833 25.0101C147.222 25.0101 152.422 26.7188 156.434 30.1362C160.446 33.4793 162.452 38.1968 162.452 44.2887L162.452 82.5115H154.094V67.1332C150.305 78.1283 142.95 83.6259 132.029 83.6259C126.903 83.6259 122.706 82.2144 119.437 79.3913C116.243 76.5682 114.645 72.8165 114.645 68.1362C114.645 63.0844 116.465 59.1841 120.106 56.4353C123.82 53.6865 128.612 52.015 134.481 51.4206L147.073 49.972C151.754 49.5262 154.094 47.3718 154.094 43.5086C154.094 40.0169 152.868 37.2681 150.417 35.2623C147.965 33.2564 144.733 32.2535 140.722 32.2535C136.71 32.2535 133.255 33.2564 130.358 35.2623C127.461 37.2681 125.492 40.3512 124.452 44.5115L116.317 42.2828C117.654 36.711 120.514 32.4392 124.898 29.4676C129.355 26.4959 134.667 25.0101 140.833 25.0101ZM134.147 76.6054C139.867 76.6054 144.622 74.7109 148.411 70.9221C152.2 67.0589 154.094 62.5643 154.094 57.4382V52.7579C153.054 54.9866 150.528 56.3239 146.516 56.7696L134.37 58.1068C130.952 58.5526 128.203 59.5927 126.123 61.2271C124.043 62.7872 123.003 64.9416 123.003 67.6904C123.003 70.3649 124.006 72.5193 126.012 74.1538C128.092 75.7882 130.804 76.6054 134.147 76.6054Z" fill="#3A3A3A"/>
<path d="M205.515 25.0101C212.127 25.0101 217.55 27.3131 221.785 31.9192C226.094 36.5252 228.248 42.32 228.248 49.3033V82.5115L219.891 82.5115V50.3063C219.891 45.3288 218.256 41.1685 214.987 37.8253C211.718 34.4079 207.67 32.6992 202.841 32.6992C197.566 32.6992 193.22 34.3708 189.803 37.7139C186.385 41.057 184.676 45.2545 184.676 50.3063V82.5115H176.319L176.319 26.1245L184.676 26.1245V40.6113C186.237 35.8566 188.874 32.0678 192.588 29.2447C196.303 26.4216 200.612 25.0101 205.515 25.0101Z" fill="#3A3A3A"/>
<path d="M247.466 33.7022L234.762 33.7022L234.762 26.1245L247.466 26.1245V5.9544L255.824 3.39135V26.1245L272.985 26.1245V33.7022L255.824 33.7022L255.824 63.3444C255.824 67.5047 256.715 70.4764 258.498 72.2593C260.281 74.0423 263.216 74.9338 267.302 74.9338H272.985V82.5116L267.302 82.5115C260.541 82.5115 255.526 80.9143 252.258 77.7198C249.063 74.5252 247.466 69.622 247.466 63.0101V33.7022Z" fill="#3A3A3A"/>
<path d="M283.809 9.40895C283.809 7.84883 284.329 6.54873 285.369 5.50865C286.409 4.46858 287.709 3.94854 289.27 3.94854C290.755 3.94854 292.018 4.46858 293.058 5.50866C294.173 6.54873 294.73 7.84883 294.73 9.40895C294.73 10.8948 294.173 12.1577 293.058 13.1978C292.018 14.2379 290.755 14.7579 289.27 14.7579C287.709 14.7579 286.409 14.2379 285.369 13.1978C284.329 12.1577 283.809 10.8948 283.809 9.40895ZM293.393 82.5116H285.035V26.1245L293.393 26.1245V82.5116Z" fill="#3A3A3A"/>
<path d="M334.527 25.0101C343.219 25.0101 350.351 28.0932 355.923 34.2594C361.569 40.3513 364.058 47.8918 363.389 56.8811L313.8 56.8811C314.394 62.5272 316.66 67.1704 320.597 70.8107C324.609 74.3767 329.475 76.1597 335.195 76.1597C339.579 76.1597 343.479 75.0824 346.896 72.928C350.314 70.7735 352.914 67.839 354.697 64.1245L361.829 67.1333C359.452 72.1108 355.923 76.1225 351.242 79.1685C346.562 82.1401 341.176 83.6259 335.084 83.6259C326.689 83.6259 319.631 80.84 313.911 75.2682C308.265 69.622 305.442 62.6386 305.442 54.318C305.442 45.9974 308.228 39.0512 313.8 33.4793C319.371 27.8332 326.281 25.0101 334.527 25.0101ZM334.527 32.4764C329.401 32.4764 324.943 34.1108 321.154 37.3796C317.366 40.6484 314.988 44.8459 314.022 49.972L354.92 49.972C354.103 44.9202 351.8 40.7599 348.011 37.4911C344.296 34.1479 339.802 32.4764 334.527 32.4764Z" fill="#3A3A3A"/>
<path d="M384.044 26.1245V41.2799C385.976 34.8166 388.947 30.322 392.959 27.7961C397.045 25.2701 401.725 24.4901 407 25.4559V33.5908C400.685 32.1792 395.262 33.145 390.73 36.4881C386.273 39.7569 384.044 44.363 384.044 50.3063V82.5116H375.686V26.1245L384.044 26.1245Z" fill="#3A3A3A"/>
<path d="M55.4784 24.7046C63.1597 24.7046 69.5359 27.5384 74.6071 33.2062C79.7528 38.7994 82.3257 45.7722 82.3257 54.1247C82.3257 62.5517 79.7528 69.5619 74.6071 75.155C69.5359 80.7482 63.1597 83.5448 55.4784 83.5448C49.8852 83.5448 44.9259 81.9414 40.6005 78.7347C36.3497 75.4533 33.2921 71.128 31.4277 65.7585V104.799H23.038V25.8232H31.4277V42.6027C33.2921 37.1587 36.3497 32.8333 40.6005 29.6266C44.9259 26.3452 49.8852 24.7046 55.4784 24.7046ZM53.1293 75.7144C58.9462 75.7144 63.8309 73.6635 67.7834 69.5619C71.7359 65.3856 73.7122 60.2399 73.7122 54.1247C73.7122 48.0095 71.7359 42.901 67.7834 38.7994C63.8309 34.6231 58.9462 32.535 53.1293 32.535C46.8649 32.535 41.6819 34.5858 37.5802 38.6875C33.4786 42.7892 31.4277 47.9349 31.4277 54.1247C31.4277 60.3145 33.4786 65.4602 37.5802 69.5619C41.6819 73.6635 46.8649 75.7144 53.1293 75.7144Z" fill="#3A3A3A"/>
<path d="M23.0439 74.1096V58.8962C21.1049 65.3843 18.1219 69.8961 14.0948 72.4317C9.99315 74.9673 5.29488 75.7503 0 74.7808V66.6148C6.33893 68.0317 11.783 67.0622 16.3321 63.7063C20.8066 60.425 23.0439 55.8013 23.0439 49.8352V17.5067H31.4337V74.1096H23.0439Z" fill="#3A3A3A"/>
</svg>
