<svg width="46" height="38" viewBox="0 0 46 38" fill="none" xmlns="http://www.w3.org/2000/svg">
<path d="M40.075 13.1042C38.0566 3.74323 23.2767 -0.75659 17.3843 12.4144H17.3517V21.9066H12.7289L12.7941 13.531C11.3942 19.4432 5.92498 23.319 0 22.3008V17.7353C5.46921 19.6403 11.7197 15.3704 12.3057 11.4946H12.3383V0.491536H16.961C16.9385 0.810529 16.9472 4.0379 16.9547 6.79641C16.958 8.01434 16.961 9.14088 16.961 9.88533C17.4494 8.30875 19.2399 3.48047 23.765 1.37836C29.8528 -1.47919 40.1401 -0.460983 44.0141 9.88533L40.075 13.1042Z" fill="#FAFAFA"/>
<path d="M46 15.0415V19.607C40.5633 17.702 34.3128 21.9719 33.6943 25.8476L33.6943 37.5085H29.0715C29.094 37.1895 29.0853 33.9621 29.0778 31.2036C29.0778 31.1991 29.0778 31.1946 29.0778 31.1901C29.0745 29.9773 29.0715 28.8564 29.0715 28.1147C28.5831 29.6913 26.7926 34.5195 22.2675 36.6216C16.1797 39.4792 5.89241 38.461 2.01839 28.1147L5.95752 24.8958C7.97592 34.2568 22.7558 38.7566 28.6482 25.5856L28.6483 15.4356H33.2711L33.2059 23.8112C34.6058 17.899 40.075 14.0233 46 15.0415Z" fill="#FAFAFA"/>
<path fill-rule="evenodd" clip-rule="evenodd" d="M17.3843 12.4144C23.2767 -0.75659 38.0566 3.74323 40.075 13.1042L44.0141 9.88533C40.1401 -0.460983 29.8528 -1.47919 23.765 1.37836C19.2399 3.48047 17.4494 8.30875 16.961 9.88533C16.961 9.14088 16.958 8.01434 16.9547 6.79641C16.9472 4.0379 16.9385 0.810529 16.961 0.491536H12.3383V11.4946H12.3057C11.7197 15.3704 5.46921 19.6403 0 17.7353V22.3008C5.92498 23.319 11.3942 19.4432 12.7941 13.531L12.7289 21.9066H17.3517V12.4144H17.3843ZM46 19.607V15.0415C40.075 14.0233 34.6058 17.899 33.2059 23.8112L33.2711 15.4356H28.6483L28.6482 25.5856C22.7558 38.7566 7.97592 34.2568 5.95752 24.8958L2.01839 28.1147C5.89241 38.461 16.1797 39.4792 22.2675 36.6216C26.7926 34.5195 28.5831 29.6913 29.0715 28.1147C29.0715 28.8564 29.0745 29.9773 29.0778 31.1901L29.0778 31.2036C29.0853 33.9621 29.094 37.1895 29.0715 37.5085H33.6943L33.6943 25.8476C34.3128 21.9719 40.5633 17.702 46 19.607Z" fill="#FAFAFA"/>
</svg>
