<svg width="264" height="212" viewBox="0 0 264 212" fill="none" xmlns="http://www.w3.org/2000/svg">
<g filter="url(#filter0_d_2338_8575)">
<path fill-rule="evenodd" clip-rule="evenodd" d="M84.1922 162.903L71.0575 198.146L73.4674 199.831L81.3777 184.181C81.9303 183.088 82.3799 181.947 82.7207 180.772L88.5235 160.773C94.307 155.008 99.7435 160.005 108.788 168.319L109.255 168.747C109.735 169.189 110.418 169.37 111.058 169.229C132.044 164.626 135.676 159.318 121.993 143.707C122.985 142.937 123.962 142.183 124.922 141.441C146.868 124.487 160.042 114.31 156.815 83.1633C150.473 45.7944 141.371 49.3413 122.517 68.4659C122.119 68.8699 121.733 69.3313 121.405 69.7927C120.319 71.3187 119.282 72.7959 118.291 74.2222L100.108 96.3438L99.1253 79.1533C99.6013 71.1645 100.233 60.7244 100.758 47.5556C102.249 10.1503 84.2766 8.3789 50.0568 7.94547C49.4997 7.93841 48.9435 8.17204 48.5594 8.57121C19.4021 38.8717 19.2889 52.5298 46.4826 70.7058L70.1485 111.078L44.6053 77.2673C33.4213 64.6677 26.9589 62.7406 15.7284 62.9587C15.3317 62.9664 14.972 63.213 14.8207 63.5759C6.71605 83.0146 5.04603 94.5299 15.5199 114.921C16.1136 116.076 17.0666 117.044 18.1952 117.704C48.5275 135.424 48.2717 139.413 28.8129 144.422C28.3376 144.544 28.0041 144.998 28.0539 145.481C29.7803 162.229 40.2568 167.881 58.2025 172.159C59.3124 172.423 60.4774 172.028 61.2023 171.156L61.3431 170.987C68.9388 161.845 73.586 156.252 84.1922 162.903Z" fill="#70937A"/>
</g>
<g filter="url(#filter1_d_2338_8575)">
<path d="M161.576 149.141C166.534 145.921 170.652 147.68 179.333 148.332C174.178 142.877 170.287 144.754 166.791 140.6C160.367 132.964 159.844 123.535 161.644 117.122C161.913 116.163 162.988 115.756 163.952 116.006C166.845 116.755 169.146 115.787 171.002 115.279C171.207 115.223 171.428 115.215 171.64 115.234C180.275 116.025 178.554 102.387 179.4 97.3904C180.013 93.7629 181.878 88.4493 186.103 84.2087C189.338 80.9625 194.83 78.6228 195.713 76.0874C195.812 75.8028 195.915 75.5148 196.098 75.2753L200.519 69.4814C201.091 68.7319 202.163 68.5888 202.911 69.1621L206.759 72.1079C207.077 72.3514 207.299 72.7076 207.396 73.0961C210.324 84.8438 218.913 83.7085 220.587 97.8821C221.106 102.277 224.11 101.375 228.539 109.244C228.633 109.411 228.701 109.607 228.732 109.796C230.03 117.778 228.099 121.702 227.589 122.532C228.074 121.91 230.169 119.606 236.009 116.061C236.323 115.871 236.707 115.78 237.073 115.818L242.81 116.409C243.749 116.506 244.531 117.173 244.774 118.085L246.568 124.807C246.735 125.432 246.617 126.098 246.292 126.656C242.739 132.757 246.844 134.16 245.195 140.222C244.066 145.15 230.917 154.655 225.646 155.181C227.362 155.162 229.643 159.601 238.965 156.098C241.913 154.991 245.143 154.639 248.117 155.672L252.208 157.094C253.132 157.415 253.598 158.45 253.203 159.345C247.286 172.739 239.859 176.694 228.828 184.264C227.431 185.223 225.837 185.872 224.171 186.182C211.119 188.611 210.314 190.97 207.468 200.323C207.184 201.255 206.107 201.274 205.141 201.518C202.751 188.203 184.385 189.944 172.526 182.296C167.207 178.866 183.392 172.96 164.556 162.761C162.914 161.572 160.307 154.972 160.021 151.724C159.924 150.629 160.654 149.739 161.576 149.141Z" fill="#FFBA53"/>
</g>
<defs>
<filter id="filter0_d_2338_8575" x="0.403956" y="0.15066" width="166.916" height="209.701" filterUnits="userSpaceOnUse" color-interpolation-filters="sRGB">
<feFlood flood-opacity="0" result="BackgroundImageFix"/>
<feColorMatrix in="SourceAlpha" type="matrix" values="0 0 0 0 0 0 0 0 0 0 0 0 0 0 0 0 0 0 127 0" result="hardAlpha"/>
<feOffset dx="1.11352" dy="1.11352"/>
<feGaussianBlur stdDeviation="4.45409"/>
<feComposite in2="hardAlpha" operator="out"/>
<feColorMatrix type="matrix" values="0 0 0 0 0.649805 0 0 0 0 0.571842 0 0 0 0 0.428909 0 0 0 1 0"/>
<feBlend mode="normal" in2="BackgroundImageFix" result="effect1_dropShadow_2338_8575"/>
<feBlend mode="normal" in="SourceGraphic" in2="effect1_dropShadow_2338_8575" result="shape"/>
</filter>
<filter id="filter1_d_2338_8575" x="152.217" y="61.0159" width="111.148" height="150.523" filterUnits="userSpaceOnUse" color-interpolation-filters="sRGB">
<feFlood flood-opacity="0" result="BackgroundImageFix"/>
<feColorMatrix in="SourceAlpha" type="matrix" values="0 0 0 0 0 0 0 0 0 0 0 0 0 0 0 0 0 0 127 0" result="hardAlpha"/>
<feOffset dx="1.11352" dy="1.11352"/>
<feGaussianBlur stdDeviation="4.45409"/>
<feComposite in2="hardAlpha" operator="out"/>
<feColorMatrix type="matrix" values="0 0 0 0 0.649805 0 0 0 0 0.571842 0 0 0 0 0.428909 0 0 0 1 0"/>
<feBlend mode="normal" in2="BackgroundImageFix" result="effect1_dropShadow_2338_8575"/>
<feBlend mode="normal" in="SourceGraphic" in2="effect1_dropShadow_2338_8575" result="shape"/>
</filter>
</defs>
</svg>
