<svg width="40" height="40" viewBox="0 0 40 40" fill="none" xmlns="http://www.w3.org/2000/svg">
<path d="M39.1736 35.4885C38.3274 28.7317 33.9515 23.0689 27.939 20.373C30.101 18.3046 31.4486 15.3975 31.4486 12.1765C31.4486 5.89222 26.3216 0.8 20.0001 0.8C13.6784 0.8 8.55149 5.89222 8.55149 12.1765C8.55149 15.3974 9.89901 18.3046 12.061 20.373C6.04848 23.0688 1.6727 28.7317 0.82641 35.4885C0.560321 37.613 2.33209 39.2 4.2521 39.2H35.748C37.6679 39.2 39.4397 37.613 39.1736 35.4885ZM23.9422 20.9398C24.0076 21.4555 24.3715 21.8841 24.8705 22.0353L24.8705 22.0353C31.063 23.9114 35.7249 29.2738 36.5441 35.8143C36.5861 36.1497 36.3025 36.5647 35.748 36.5647H4.2521C3.69741 36.5647 3.41379 36.1496 3.45577 35.8143C4.27496 29.2738 8.93695 23.9114 15.1295 22.0353L15.1295 22.0353C15.6284 21.8841 15.9923 21.4555 16.0579 20.9399L16.0579 20.9398C16.1232 20.4239 15.8778 19.9187 15.4319 19.6489L15.4318 19.6489C12.892 18.1127 11.2012 15.3399 11.2012 12.1765C11.2012 7.35006 15.1393 3.43529 20.0001 3.43529C24.8606 3.43529 28.7989 7.35006 28.7989 12.1765C28.7989 15.3399 27.108 18.1127 24.5681 19.6489L24.568 19.6489C24.1222 19.9187 23.8767 20.4239 23.9422 20.9398Z" fill="#DC2525" stroke="#DC2525" stroke-width="0.4"/>
</svg>
