<svg width="42" height="42" viewBox="0 0 42 42" fill="none" xmlns="http://www.w3.org/2000/svg">
<path d="M40 21.3874V24.2775C40 31.689 40 35.395 37.774 37.6974C35.5481 40 31.9653 40 24.8 40H17.2C10.0346 40 6.45198 40 4.22598 37.6974C2 35.395 2 31.689 2 24.2775V21.3874C2 17.0394 2 14.8654 2.98648 13.0632C3.97296 11.261 5.7752 10.1425 9.37966 7.90545L13.1797 5.54705C16.9898 3.18235 18.895 2 21 2C23.105 2 25.0101 3.18235 28.8204 5.54705L32.6204 7.90543C36.2249 10.1425 38.027 11.261 39.0135 13.0632" stroke="#DC2525" stroke-width="3" stroke-linecap="round"/>
<path d="M26.7 32.4004H15.3" stroke="#DC2525" stroke-width="3" stroke-linecap="round"/>
</svg>
